<?xml version="1.0" encoding="UTF-8"?>
<!DOCTYPE svg PUBLIC "-//W3C//DTD SVG 1.1//EN" "http://www.w3.org/Graphics/SVG/1.1/DTD/svg11.dtd">
<svg xmlns="http://www.w3.org/2000/svg" version="1.1" width="1376px" height="430px" style="shape-rendering:geometricPrecision; text-rendering:geometricPrecision; image-rendering:optimizeQuality; fill-rule:evenodd; clip-rule:evenodd" xmlns:xlink="http://www.w3.org/1999/xlink">
<g><path style="opacity:0.965" fill="#000000" d="M 228.5,7.5 C 256.296,4.96203 282.296,10.462 306.5,24C 325.697,37.5454 336.864,56.0454 340,79.5C 342.652,115.209 332.652,146.875 310,174.5C 281.197,207.333 246.03,230.833 204.5,245C 241.239,255.054 257.072,278.887 252,316.5C 246.812,345.672 231.978,368.505 207.5,385C 167.369,408.198 124.036,419.031 77.5,417.5C 59.0026,417.931 40.6692,416.431 22.5,413C 10.9632,411.049 8.96323,405.716 16.5,397C 18.3659,396.015 20.3659,395.515 22.5,395.5C 28.7377,396.345 34.9044,397.345 41,398.5C 83.38,300.74 124.38,202.407 164,103.5C 168.333,93.5 172.667,83.5 177,73.5C 179.993,66.845 183.493,60.5116 187.5,54.5C 201.65,46.4789 216.65,44.1456 232.5,47.5C 233.641,49.4213 233.808,51.4213 233,53.5C 205.179,114.473 179.013,176.14 154.5,238.5C 171.399,238.776 187.399,234.943 202.5,227C 238.887,206.273 264.054,176.106 278,136.5C 287.038,112.903 290.371,88.5698 288,63.5C 282.602,40.3738 268.102,27.2071 244.5,24C 194.818,21.7586 155.985,40.9253 128,81.5C 113.97,106.617 106.97,133.617 107,162.5C 104.398,166.212 100.898,167.378 96.5,166C 84.7616,161.592 76.2616,153.758 71,142.5C 69.5363,129.282 71.5363,116.616 77,104.5C 90.5808,77.9176 110.081,56.751 135.5,41C 164.113,22.9643 195.113,11.7976 228.5,7.5 Z M 148.5,253.5 C 191.934,256.115 209.101,278.782 200,321.5C 189.983,361.851 164.816,387.351 124.5,398C 114.296,400.901 103.962,402.068 93.5,401.5C 110.737,351.704 129.071,302.371 148.5,253.5 Z"/></g>
<g><path style="opacity:0.954" fill="#000000" d="M 805.5,24.5 C 808.685,24.0196 811.519,24.6863 814,26.5C 824.922,48.5232 823.589,69.8565 810,90.5C 769.463,148.564 733.796,209.564 703,273.5C 729.727,240.766 760.227,212.266 794.5,188C 806.199,179.528 816.366,181.028 825,192.5C 830.182,200.681 830.515,209.014 826,217.5C 814.603,235.236 803.603,253.236 793,271.5C 781.825,292.525 774.991,314.858 772.5,338.5C 771.752,355.964 778.418,359.797 792.5,350C 799.739,343.431 806.239,336.265 812,328.5C 815.287,308.974 821.954,290.641 832,273.5C 850.435,241.393 874.269,213.893 903.5,191C 912.906,184.809 923.24,181.309 934.5,180.5C 949.096,180.925 954.929,188.258 952,202.5C 948.834,213.028 942.667,221.195 933.5,227C 927.463,229.137 924.796,227.137 925.5,221C 926.571,214.183 927.071,207.349 927,200.5C 926.333,199.167 925.333,198.167 924,197.5C 917.405,202.091 911.405,207.424 906,213.5C 884.948,241.107 870.782,271.941 863.5,306C 864.079,309.139 865.079,312.139 866.5,315C 867.833,315.667 869.167,315.667 870.5,315C 871.551,313.615 872.884,312.615 874.5,312C 893.305,291.868 909.805,270.035 924,246.5C 926.332,243.209 929.165,242.709 932.5,245C 937.671,248.653 941.004,253.487 942.5,259.5C 935.85,274.946 929.683,290.613 924,306.5C 920.417,317.58 919.083,328.914 920,340.5C 920.945,349.452 925.779,352.952 934.5,351C 946.795,343.539 956.129,333.372 962.5,320.5C 956.24,305.147 958.407,291.147 969,278.5C 972.7,274.465 976.7,270.798 981,267.5C 996.053,244.727 1006.72,220.06 1013,193.5C 1020.74,181.189 1029.58,169.689 1039.5,159C 1045.99,155.913 1050.32,157.746 1052.5,164.5C 1050.17,172.413 1050,180.413 1052,188.5C 1061.19,222.44 1067.02,256.94 1069.5,292C 1068.02,314.954 1059.68,334.954 1044.5,352C 1051.5,351.664 1057.83,349.331 1063.5,345C 1072.68,337.489 1080.01,328.489 1085.5,318C 1080.49,303.363 1082.99,290.196 1093,278.5C 1096.7,274.465 1100.7,270.798 1105,267.5C 1120.05,244.727 1130.72,220.06 1137,193.5C 1144.74,181.189 1153.58,169.689 1163.5,159C 1169.99,155.913 1174.32,157.746 1176.5,164.5C 1174.17,172.413 1174,180.413 1176,188.5C 1185.19,222.44 1191.02,256.94 1193.5,292C 1192.02,314.954 1183.68,334.954 1168.5,352C 1178.2,350.983 1186.54,346.983 1193.5,340C 1196.12,337.261 1198.62,334.427 1201,331.5C 1209.44,271.064 1240.94,227.564 1295.5,201C 1302.09,198.469 1308.76,196.136 1315.5,194C 1328.73,192.062 1334.73,197.562 1333.5,210.5C 1332.33,211.584 1331,212.417 1329.5,213C 1313.31,215.264 1298.98,221.597 1286.5,232C 1258.37,259.184 1242.37,292.35 1238.5,331.5C 1237.51,345.642 1243.68,354.642 1257,358.5C 1262.24,357.299 1267.07,355.132 1271.5,352C 1280.74,344.439 1288.07,335.439 1293.5,325C 1283.35,307.271 1280.85,288.438 1286,268.5C 1289.41,249.836 1297.91,234.002 1311.5,221C 1316.74,217.734 1322.41,216.734 1328.5,218C 1333.15,220.455 1335.98,224.288 1337,229.5C 1338.92,239.88 1338.59,250.213 1336,260.5C 1334.31,267.921 1332.31,275.254 1330,282.5C 1324.65,296.739 1318.81,310.739 1312.5,324.5C 1321.78,326.146 1330.11,323.979 1337.5,318C 1348.01,307.821 1356.18,295.987 1362,282.5C 1370.09,278.584 1372.42,280.917 1369,289.5C 1362.2,306.954 1351.04,320.788 1335.5,331C 1325.94,335.761 1316.11,336.594 1306,333.5C 1295.45,351.049 1281.28,364.882 1263.5,375C 1247.89,382.588 1232.56,382.255 1217.5,374C 1208.85,366.877 1203.68,357.71 1202,346.5C 1192.69,356.733 1181.86,364.9 1169.5,371C 1152.64,377.312 1135.98,376.979 1119.5,370C 1111.29,364.786 1104.79,357.952 1100,349.5C 1096.4,343.293 1093.06,336.96 1090,330.5C 1080.5,345.333 1068.33,357.5 1053.5,367C 1034.59,376.996 1015.25,377.996 995.5,370C 989.377,366.211 984.21,361.378 980,355.5C 975.566,348.297 971.4,340.964 967.5,333.5C 958.309,348.858 945.976,361.024 930.5,370C 912.933,374.771 902.099,368.271 898,350.5C 896.645,344.215 896.311,337.882 897,331.5C 897.82,322.564 899.487,313.897 902,305.5C 895.759,312.985 889.759,320.652 884,328.5C 877.167,335.333 870.333,342.167 863.5,349C 858.503,352.834 853.17,356.167 847.5,359C 837.486,362.369 828.653,360.535 821,353.5C 818.417,350.003 816.084,346.336 814,342.5C 804.254,356.616 791.421,366.783 775.5,373C 753.105,377.29 739.938,368.124 736,345.5C 733.253,324.808 735.92,304.808 744,285.5C 751.639,267.554 760.139,250.554 769.5,234.5C 739.069,258.097 712.569,285.43 690,316.5C 681.748,330.002 673.748,343.669 666,357.5C 663.167,361.667 659.667,365.167 655.5,368C 644.061,369.216 639.561,364.049 642,352.5C 631.623,361.774 619.79,368.608 606.5,373C 567.288,381.319 544.122,365.819 537,326.5C 526.181,335.039 514.181,337.373 501,333.5C 491.213,349.62 478.38,362.787 462.5,373C 445.885,382.336 429.218,382.67 412.5,374C 402.363,365.226 396.863,354.059 396,340.5C 385.076,353.878 371.576,363.711 355.5,370C 342.724,372.853 332.224,369.353 324,359.5C 320.287,352.121 319.62,344.454 322,336.5C 324.997,324.502 329.664,313.169 336,302.5C 345.838,286.828 355.171,270.828 364,254.5C 366.242,250.317 366.742,245.984 365.5,241.5C 363.38,240.109 361.047,239.442 358.5,239.5C 348.065,241.192 337.731,243.359 327.5,246C 319.552,265.729 310.386,284.896 300,303.5C 297.448,307.322 294.448,307.988 291,305.5C 290.833,304.667 290.667,303.833 290.5,303C 298.878,284.241 307.545,265.574 316.5,247C 309.799,246.966 306.466,243.633 306.5,237C 312.442,210.448 324.442,187.115 342.5,167C 349.218,162.584 352.884,164.251 353.5,172C 352.051,180.631 350.051,189.131 347.5,197.5C 358.107,195.747 368.774,194.914 379.5,195C 386.634,195.479 392.134,198.646 396,204.5C 396.667,207.5 396.667,210.5 396,213.5C 389.555,231.723 382.555,249.723 375,267.5C 368.761,283.536 364.595,300.036 362.5,317C 364.872,333.345 373.205,337.012 387.5,328C 391.092,325.287 394.592,322.453 398,319.5C 409.574,262.273 442.074,222.106 495.5,199C 501.846,196.551 508.346,194.717 515,193.5C 523.411,193.61 528.244,197.776 529.5,206C 529.604,208.145 528.937,209.979 527.5,211.5C 510.305,214.266 494.972,221.1 481.5,232C 455.563,256.701 439.73,286.868 434,322.5C 433.152,329.899 433.485,337.233 435,344.5C 441.23,358.065 450.73,361.232 463.5,354C 474.032,346.141 482.365,336.475 488.5,325C 480.371,311.981 477.205,297.815 479,282.5C 480.654,258.5 489.821,238 506.5,221C 521.625,213.146 530.459,217.646 533,234.5C 533.365,250.976 530.699,266.976 525,282.5C 519.645,296.739 513.812,310.739 507.5,324.5C 518.795,326.456 528.295,323.123 536,314.5C 542.071,269.515 561.905,232.015 595.5,202C 608.436,190.867 623.436,184.7 640.5,183.5C 652.52,183.019 659.686,188.685 662,200.5C 664.658,226.685 654.158,245.518 630.5,257C 623.904,258.741 622.071,256.574 625,250.5C 632.047,238.364 636.047,225.364 637,211.5C 634.947,207.708 631.781,206.542 627.5,208C 622.446,210.389 617.946,213.555 614,217.5C 586.341,250.473 576.008,288.14 583,330.5C 591.012,349.919 604.846,355.752 624.5,348C 633.811,343.762 641.978,337.928 649,330.5C 673.076,270.678 699.076,211.678 727,153.5C 748.568,112.681 771.902,73.0148 797,34.5C 799.669,31.0003 802.502,27.667 805.5,24.5 Z M 1021.5,220.5 C 1032.9,257.807 1035.74,295.807 1030,334.5C 1028.11,339.945 1025.45,344.945 1022,349.5C 1013.25,342.684 1006.91,334.018 1003,323.5C 997.768,309.137 992.934,294.637 988.5,280C 999.644,260.209 1010.64,240.375 1021.5,220.5 Z M 1145.5,220.5 C 1156.9,257.807 1159.74,295.807 1154,334.5C 1152.11,339.945 1149.45,344.945 1146,349.5C 1137.25,342.684 1130.91,334.018 1127,323.5C 1121.77,309.137 1116.93,294.637 1112.5,280C 1123.64,260.209 1134.64,240.375 1145.5,220.5 Z M 510.5,250.5 C 513.044,250.104 515.211,250.771 517,252.5C 517.667,256.167 517.667,259.833 517,263.5C 511.661,280.847 504.661,297.514 496,313.5C 491.278,295.114 493.278,277.447 502,260.5C 504.15,256.497 506.984,253.164 510.5,250.5 Z M 1315.5,250.5 C 1318.04,250.104 1320.21,250.771 1322,252.5C 1322.67,256.167 1322.67,259.833 1322,263.5C 1316.66,280.847 1309.66,297.514 1301,313.5C 1296.28,295.114 1298.28,277.447 1307,260.5C 1309.15,256.497 1311.98,253.164 1315.5,250.5 Z"/></g>
</svg>
